#N canvas 972 30 818 607 10;
#X obj 21 379 vcf~;
#X obj 20 -18 adc~;
#X obj 15 414 dac~;
#X floatatom 112 343 5 0 0 0 - - -;
#X obj 112 210 vsl 15 128 0 20 0 0 empty empty empty 0 -9 0 10 -262144
-1 -1 3366 1;
#X obj 87 21 +~ 1;
#X obj 88 42 *~ 0.5;
#X obj 87 0 osc~ 2;
#X obj 189 77 hsl 128 15 700 6000 0 0 empty empty empty -2 -8 0 10
-262144 -1 -1 0 1;
#X obj 143 150 hsl 128 15 0 700 0 0 empty empty empty -2 -8 0 10 -262144
-1 -1 0 1;
#X floatatom 140 169 6 0 0 0 - - -;
#X floatatom 141 111 6 0 0 0 - - -;
#X obj 141 92 -;
#X obj 141 70 bang;
#X obj 41 176 +~ 200;
#X obj 40 94 *~ 1500;
#X text 138 17 <-- LFO (Low-Frequency Oscillator;
#X text 322 75 <-- Maximum of the freq. range;
#X text 276 147 <-- Minimum of the freq. range;
#X text 149 300 <-- "Q";
#X text 60 380 <-- Voltage-Controlled band-pass filter;
#X obj 92 -29 hsl 128 15 0.5 4 0 0 empty empty empty -2 -8 0 10 -262144
-1 -1 0 1;
#X text 273 427 Pierre Massat \, GuitarExtended \, 2012.s;
#X obj 184 201 loadbang;
#X msg 182 226 5.3;
#X obj 240 -30 r LFO_freq @hv_param 0 20 2;
#X obj 302 227 r Q @hv_param 0.1 20 5.3;
#X obj 366 105 r max_freq_range @hv_param 700 6000 1500;
#X obj 349 173 r min_freq_range @hv_param 0 700 200;
#X connect 0 0 2 1;
#X connect 0 0 2 0;
#X connect 1 0 0 0;
#X connect 4 0 3 0;
#X connect 4 0 0 2;
#X connect 5 0 6 0;
#X connect 6 0 15 0;
#X connect 7 0 5 0;
#X connect 8 0 12 0;
#X connect 9 0 10 0;
#X connect 9 0 12 1;
#X connect 9 0 13 0;
#X connect 9 0 14 1;
#X connect 12 0 11 0;
#X connect 12 0 15 1;
#X connect 13 0 12 0;
#X connect 14 0 0 1;
#X connect 15 0 14 0;
#X connect 21 0 7 0;
#X connect 23 0 24 0;
#X connect 24 0 4 0;
#X connect 25 0 7 0;
#X connect 26 0 4 0;
#X connect 27 0 12 0;
#X connect 28 0 9 0;
